<?xml version="1.0" encoding="UTF-8" standalone="no"?>
<svg
   width="128"
   height="128"
   version="1.1"
   id="svg6"
   sodipodi:docname="icon.svg"
   inkscape:version="1.4.2 (f4327f4, 2025-05-13)"
   xmlns:inkscape="http://www.inkscape.org/namespaces/inkscape"
   xmlns:sodipodi="http://sodipodi.sourceforge.net/DTD/sodipodi-0.dtd"
   xmlns="http://www.w3.org/2000/svg"
   xmlns:svg="http://www.w3.org/2000/svg">
  <defs
     id="defs6" />
  <sodipodi:namedview
     id="namedview6"
     pagecolor="#ffffff"
     bordercolor="#000000"
     borderopacity="0.25"
     inkscape:showpageshadow="2"
     inkscape:pageopacity="0.0"
     inkscape:pagecheckerboard="0"
     inkscape:deskcolor="#d1d1d1"
     inkscape:zoom="3.9167087"
     inkscape:cx="65.233343"
     inkscape:cy="73.148152"
     inkscape:window-width="1280"
     inkscape:window-height="953"
     inkscape:window-x="-8"
     inkscape:window-y="-8"
     inkscape:window-maximized="1"
     inkscape:current-layer="svg6" />
  <rect
     width="124"
     height="124"
     x="2"
     y="2"
     fill="#363d52"
     stroke="#212532"
     stroke-width="4"
     rx="14"
     id="rect1" />
  <g
     fill="#ffffff"
     transform="matrix(0.101,0,0,0.101,12.322,12.322)"
     id="g4"
     style="display:none">
    <path
       d="m 105,673 v 33 q 407,354 814,0 v -33 z"
       id="path1" />
    <path
       fill="#478cbf"
       d="m 105,673 152,14 q 12,1 15,14 l 4,67 132,10 8,-61 q 2,-11 15,-15 h 162 q 13,4 15,15 l 8,61 132,-10 4,-67 q 3,-13 15,-14 L 919,673 V 427 q 30,-39 56,-81 -35,-59 -83,-108 -43,20 -82,47 -40,-37 -88,-64 7,-51 8,-102 -59,-28 -123,-42 -26,43 -46,89 -49,-7 -98,0 -20,-46 -46,-89 -64,14 -123,42 1,51 8,102 -48,27 -88,64 -39,-27 -82,-47 -48,49 -83,108 26,42 56,81 z m 0,33 v 39 c 0,276 813,276 814,0 v -39 l -134,12 -5,69 q -2,10 -14,13 l -162,11 q -12,0 -16,-11 L 578,735 H 446 l -10,65 q -4,11 -16,11 L 258,800 q -12,-3 -14,-13 l -5,-69 z"
       id="path2" />
    <path
       d="m 483,600 c 0,34 58,34 58,0 v -86 c 0,-34 -58,-34 -58,0 z"
       id="path3" />
    <circle
       cx="725"
       cy="526"
       r="90"
       id="circle3" />
    <circle
       cx="299"
       cy="526"
       r="90"
       id="circle4" />
  </g>
  <g
     fill="#414042"
     transform="matrix(0.101,0,0,0.101,12.322,12.322)"
     id="g6"
     style="display:none">
    <circle
       cx="307"
       cy="532"
       r="60"
       id="circle5" />
    <circle
       cx="717"
       cy="532"
       r="60"
       id="circle6" />
  </g>
  <rect
     style="fill:#ececec;fill-opacity:1;stroke:#212532;stroke-width:1.00218;stroke-linejoin:round;stroke-dasharray:none;stroke-opacity:1"
     id="rect7"
     width="121.61874"
     height="29.673859"
     x="3.275048"
     y="94.693817"
     rx="14.721483" />
  <rect
     style="fill:#ececec;fill-opacity:1;stroke:none;stroke-width:5.2782;stroke-linejoin:round;stroke-opacity:1"
     id="rect8"
     width="120.50935"
     height="16.84557"
     x="3.8297462"
     y="93.961754"
     rx="0" />
  <g
     id="g7"
     transform="matrix(0.13165028,0,0,0.13165027,53.577233,57.031414)"
     style="display:inline">
    <g
       id="g38"
       transform="matrix(3.7795276,0,0,3.7795276,766.29578,-593.16795)">
      <path
         style="fill:#fbab3c;fill-opacity:1;stroke:#192a45;stroke-width:3.883;stroke-linecap:butt;stroke-linejoin:round;stroke-dasharray:none;stroke-opacity:1"
         d="m -208.3088,248.09511 c 0,0 -22.08701,3.71908 -18.77349,15.03324 2.6678,4.56432 6.6552,-1.49766 15.63056,3.69716 10.56464,2.60095 2.38391,-3.89083 17.09207,-2.70153 -0.40442,0.4371 9.35835,-8.36213 -13.94914,-16.02887 z"
         id="path7" />
      <path
         style="fill:#fbab3c;fill-opacity:1;stroke:#1b2945;stroke-width:3.883;stroke-linejoin:round;stroke-dasharray:none;stroke-opacity:1"
         d="m -149.91005,247.95999 c 0,0 -21.53924,6.18099 -16.99822,17.05189 3.1547,4.23575 6.44855,-2.23712 15.9411,1.91553 10.78578,1.39612 1.93986,-4.13484 16.68766,-4.60778 -0.3537,0.47989 8.37761,-9.363 -15.63054,-14.35964 z"
         id="path8" />
      <g
         id="g19"
         style="stroke:#1b2b45;stroke-width:2.972;stroke-dasharray:none;stroke-opacity:1"
         transform="translate(-49.198005,9.6049257)">
        <path
           style="fill:#4d4d4d;stroke:#1b2b45;stroke-width:2.972;stroke-dasharray:none;stroke-opacity:1"
           d="m -139.07475,77.077574 c 0,0 8.79689,-14.661496 10.89139,-15.499296 2.0945,-0.837798 3.7701,5.445699 3.7701,5.445699 l -6.28349,12.566996 z"
           id="path5" />
        <path
           style="fill:#4d4d4d;stroke:#1b2b45;stroke-width:2.972;stroke-dasharray:none;stroke-opacity:1"
           d="m -131.53455,72.050774 c 0,0 10.47249,-5.026797 15.08039,-6.702396 4.6079,-1.675601 -5.0268,14.242595 -5.0268,14.242595 z"
           id="path6" />
      </g>
      <ellipse
         style="display:inline;fill:#20385c;fill-opacity:1;stroke:#1b2b45;stroke-width:3.29462;stroke-linejoin:round;stroke-dasharray:none;stroke-opacity:0.996078"
         id="ellipse4"
         cx="-212.68237"
         cy="133.33241"
         rx="18.233799"
         ry="29.260275"
         transform="matrix(0.92399247,-0.38241065,0.5295134,0.84830158,0,0)" />
      <ellipse
         style="display:inline;fill:#2e4b81;fill-opacity:1;stroke:none;stroke-width:2.25411;stroke-linejoin:round;stroke-dasharray:none;stroke-opacity:0.996078"
         id="ellipse31"
         cx="-205.5972"
         cy="132.69048"
         rx="12.343922"
         ry="20.232086"
         transform="matrix(0.91888668,-0.39452157,0.51556591,0.85684992,0,0)" />
      <path
         id="path1-0"
         style="display:inline;fill:#20385c;fill-opacity:1;stroke:#1b2b45;stroke-width:3.572;stroke-dasharray:none;stroke-opacity:1"
         d="m -181.89895,80.694644 a 57.464146,57.167938 0 0 0 -57.46367,57.168076 57.464146,57.167938 0 0 0 9.46402,31.43013 58.945175,58.056561 0 0 0 -7.82794,24.09569 60.426216,45.31966 0 0 0 -4.59817,17.34106 60.426216,45.31966 0 0 0 52.22472,44.90011 58.945175,58.056561 0 0 0 11.07993,1.03508 58.945175,58.056561 0 0 0 28.13421,-7.0399 60.426216,45.31966 0 0 0 29.41008,-38.43538 58.945175,58.056561 0 0 0 1.40095,-12.58166 58.945175,58.056561 0 0 0 -11.09079,-33.89767 57.464146,57.167938 0 0 0 6.73085,-26.84746 57.464146,57.167938 0 0 0 -57.46419,-57.168076 z" />
      <ellipse
         style="fill:#2e4b81;fill-opacity:1;stroke:none;stroke-width:3.15142;stroke-linecap:butt;stroke-linejoin:round;stroke-dasharray:none;stroke-opacity:1"
         id="ellipse29"
         cx="-180.01114"
         cy="133.94322"
         rx="53.095554"
         ry="51.419956" />
      <ellipse
         style="fill:#2e4b81;fill-opacity:1;stroke:none;stroke-width:2.97417;stroke-linecap:butt;stroke-linejoin:round;stroke-dasharray:none;stroke-opacity:1"
         id="ellipse33"
         cx="-173.37372"
         cy="198.4538"
         rx="47.291027"
         ry="51.419956" />
      <ellipse
         style="fill:#2e4b81;fill-opacity:1;stroke:none;stroke-width:2.97417;stroke-linecap:butt;stroke-linejoin:round;stroke-dasharray:none;stroke-opacity:1"
         id="path28"
         cx="-178.70544"
         cy="198.4538"
         rx="47.291027"
         ry="51.419956" />
      <path
         style="fill:#ffffff;fill-opacity:1;stroke-width:0.264583"
         d="m -204.60985,168.36796 c 0,0 -44.82228,80.00988 28.48519,80.00988 73.30746,0 38.53879,-81.26658 36.02539,-81.26658 0.83779,-0.83779 16.33708,-18.85049 2.9323,-47.75457 -13.40479,-28.904092 -28.48519,1.2567 -24.71509,14.24259 -0.8378,10.05359 -5.0268,20.10719 -5.0268,20.10719 l -8.378,-8.7969 c 0,0 4.18899,-36.86317 -20.52609,-37.28208 -24.71509,-0.4189 -33.93089,47.33568 -8.7969,60.74047 z"
         id="path9" />
      <path
         style="fill:#ff7f2a;stroke:#1b2b45;stroke-width:2.672;stroke-linejoin:round;stroke-dasharray:none;stroke-opacity:1"
         d="m -178.07106,149.34614 c 0,0 2.09451,7.5402 10.8914,8.7969 8.7969,1.2567 8.378,-6.2835 8.378,-6.2835 z"
         id="path11" />
      <path
         style="fill:#feac3f;fill-opacity:1;stroke:#1b2b45;stroke-width:2.272;stroke-linejoin:round;stroke-dasharray:none;stroke-opacity:1"
         d="m -178.63806,149.93637 c 0,0 5.8646,-12.567 12.567,-11.31029 6.7024,1.25669 10.4725,10.47249 10.4725,12.56699 0,2.0945 -23.0395,-1.2567 -23.0395,-1.2567 z"
         id="path10" />
      <g
         id="g22"
         style="display:inline"
         transform="translate(-46.265706,9.1860258)">
        <g
           id="g21"
           style="display:inline">
          <g
             id="g15"
             inkscape:label="OLHO">
            <ellipse
               style="display:inline;fill:#1b2743;fill-opacity:1;stroke-width:0.264583"
               id="path12"
               cx="-148.9189"
               cy="127.76445"
               rx="6.9118476"
               ry="10.891397" />
          </g>
          <ellipse
             style="fill:#ffffff;fill-opacity:1;stroke-width:0.150815"
             id="path13"
             cx="-147.85294"
             cy="123.03496"
             rx="1.9327875"
             ry="2.673305" />
        </g>
        <g
           id="g16"
           inkscape:label="OLHO"
           style="display:inline">
          <ellipse
             style="fill:#1b2743;fill-opacity:1;stroke-width:0.264583"
             id="ellipse13"
             cx="-100.32652"
             cy="124.41325"
             rx="6.9118476"
             ry="10.891397" />
          <ellipse
             style="fill:#ffffff;fill-opacity:1;stroke-width:0.150815"
             id="ellipse14"
             cx="-99.260551"
             cy="119.68376"
             rx="1.9327875"
             ry="2.673305" />
        </g>
      </g>
      <ellipse
         style="fill:#20385c;fill-opacity:1;stroke:#1b2b45;stroke-width:2.56593;stroke-dasharray:none;stroke-opacity:1"
         id="path4"
         cx="-90.175987"
         cy="336.94058"
         rx="16.669891"
         ry="32.238297"
         transform="matrix(0.53883583,0.8424108,-0.58127772,0.81370524,0,0)" />
      <ellipse
         style="display:inline;fill:#20385c;fill-opacity:1;stroke-width:0.205395"
         id="ellipse24"
         cx="-98.56131"
         cy="340.42279"
         rx="16.148695"
         ry="31.157604"
         transform="matrix(0.5197865,0.8542962,-0.562037,0.82711209,0,0)" />
      <g
         id="g26"
         style="fill:#2c4b81;fill-opacity:1;stroke-width:1.1;stroke-dasharray:none"
         transform="translate(-49.198005,10.345443)">
        <path
           style="fill:#2c4b81;fill-opacity:1;stroke-width:1.1;stroke-dasharray:none"
           d="m -139.07475,77.077574 c 0,0 8.79689,-14.661496 10.89139,-15.499296 2.0945,-0.837798 3.7701,5.445699 3.7701,5.445699 l -6.28349,12.566996 z"
           id="path25" />
        <path
           style="fill:#2c4b81;fill-opacity:1;stroke-width:1.1;stroke-dasharray:none"
           d="m -131.53455,72.050774 c 0,0 10.47249,-5.026797 15.08039,-6.702396 4.6079,-1.675601 -5.0268,14.242595 -5.0268,14.242595 z"
           id="path26" />
      </g>
      <ellipse
         style="display:inline;fill:#2e4b81;fill-opacity:1;stroke-width:0.183676"
         id="ellipse30"
         cx="-54.742584"
         cy="323.71191"
         rx="14.424665"
         ry="27.894638"
         transform="matrix(0.44478519,0.89563728,-0.66487501,0.74695463,0,0)" />
      <ellipse
         style="fill:#c6c6c6;fill-opacity:1;stroke:none;stroke-width:3.23883;stroke-linecap:butt;stroke-linejoin:round;stroke-dasharray:none;stroke-opacity:1"
         id="path31"
         cx="-191.95453"
         cy="206.30252"
         rx="42.906628"
         ry="28.945618"
         transform="rotate(-4.665832)" />
      <ellipse
         style="fill:#ffffff;fill-opacity:1;stroke:none;stroke-width:3.21577;stroke-linecap:butt;stroke-linejoin:round;stroke-dasharray:none;stroke-opacity:1"
         id="ellipse32"
         cx="-174.43219"
         cy="215.10683"
         rx="43.639702"
         ry="28.055456" />
      <ellipse
         style="fill:#fbd47b;fill-opacity:1;stroke:none;stroke-width:2.97201;stroke-linecap:butt;stroke-linejoin:round;stroke-dasharray:none;stroke-opacity:1"
         id="path33"
         cx="-216.67728"
         cy="13.080067"
         rx="1.5708745"
         ry="4.0842733"
         transform="rotate(-37.988386)" />
      <path
         style="fill:#d37332;fill-opacity:1;stroke:none;stroke-width:2.97201;stroke-linecap:butt;stroke-linejoin:round;stroke-dasharray:none;stroke-opacity:1"
         d="m -221.59802,262.87237 c 0,0 2.9323,-5.8646 5.34097,-4.81735 2.40867,1.04725 2.72285,5.65515 2.72285,5.65515 0,0 -4.02622,-1.62663 -8.06382,-0.8378 z"
         id="path34" />
      <path
         style="fill:#d37332;fill-opacity:1;stroke:none;stroke-width:2.97201;stroke-linecap:butt;stroke-linejoin:round;stroke-dasharray:none;stroke-opacity:1"
         d="m -197.12623,262.04672 c 0,0 -4.24136,-3.66537 -6.75476,-2.77521 -2.5134,0.89016 -1.46615,4.92208 -1.46615,4.92208 0,0 1.83268,-2.40868 8.22091,-2.14687 z"
         id="path35" />
      <path
         style="fill:#d67633;fill-opacity:1;stroke:none;stroke-width:2.97201;stroke-linecap:butt;stroke-linejoin:round;stroke-dasharray:none;stroke-opacity:1"
         d="m -145.75097,264.16872 c 0,0 -2.2254,-4.7388 -0.89016,-5.49806 1.33524,-0.75926 7.06893,2.2254 7.06893,2.2254 0,0 -3.79628,0.288 -6.17877,3.27266 z"
         id="path37" />
      <path
         style="fill:#d67633;fill-opacity:1;stroke:none;stroke-width:2.97201;stroke-linecap:butt;stroke-linejoin:round;stroke-dasharray:none;stroke-opacity:1"
         d="m -150.51015,265.05892 c 0,0 -1.77724,-5.09106 -3.36935,-5.53537 -1.59212,-0.44431 -5.59091,4.1469 -5.59091,4.1469 0,0 4.40608,-0.77755 8.96026,1.38847 z"
         id="path38" />
    </g>
  </g>
</svg>
